<?xml version="1.0" encoding="UTF-8"?>
<svg xmlns="http://www.w3.org/2000/svg" viewBox="0 0 841.89 595.28">
  <defs>
    <style>
      .cls-1 {
        fill: none;
      }

      .cls-2 {
        fill: #006046;
      }

      .cls-2, .cls-3, .cls-4, .cls-5, .cls-6, .cls-7, .cls-8, .cls-9 {
        mix-blend-mode: multiply;
      }

      .cls-10, .cls-4 {
        fill: #642575;
      }

      .cls-3 {
        fill: #e8cc43;
      }

      .cls-11 {
        isolation: isolate;
      }

      .cls-5 {
        fill: #1f3684;
      }

      .cls-6 {
        fill: #d20a14;
      }

      .cls-12 {
        fill: #fff;
      }

      .cls-7 {
        fill: #de81aa;
      }

      .cls-8 {
        fill: #dd751a;
      }

      .cls-9 {
        fill: #00a3cb;
      }
    </style>
  </defs>
  <g class="cls-11">
    <g id="Laag_1" data-name="Laag 1">
      <path class="cls-12" d="M164.89,319.88v-20.68l44.94-70.82h18.37v28.07h-10.66l-26.3,41.68v.86h71.92v20.89h-98.27ZM217.87,341.67v-28.1l.54-9.05v-76.12h22.21v113.28h-22.74Z"/>
      <path class="cls-12" d="M315.4,285.31c0,1.93-.15,3.83-.43,5.68-.61,4.01-1.87,7.82-3.65,11.3-.55,1.07-1.15,2.11-1.8,3.12-2.26,3.53-5.11,6.66-8.4,9.24-.23.18-.47.37-.71.55-.96.72-1.95,1.39-2.98,2.01-.26.16-.51.31-.78.46-.52.3-1.05.59-1.59.86-.27.14-.54.27-.81.4-.82.39-1.65.76-2.49,1.09-4.24,1.67-8.85,2.59-13.68,2.59-.64,0-1.28-.02-1.92-.05-.32-.02-.63-.04-.95-.06-9.47-.72-17.95-4.98-24.12-11.45-.02-.02-.03-.04-.05-.05-.57-.6-1.12-1.22-1.65-1.86-.52-.63-1.02-1.27-1.5-1.93-.2-.27-.39-.54-.58-.82-.73-1.06-1.41-2.16-2.03-3.3-.14-.26-.28-.53-.42-.8-1.79-3.49-3.04-7.29-3.65-11.3-.28-1.85-.43-3.75-.43-5.68,0-.09,0-.19,0-.28h-22.42c0,.09,0,.19,0,.28,0,8.05,1.58,15.88,4.7,23.25,3.01,7.11,7.31,13.5,12.79,18.98,5.48,5.48,11.86,9.78,18.98,12.79,7.38,3.12,15.2,4.7,23.25,4.7s15.88-1.58,23.25-4.7c7.11-3.01,13.5-7.31,18.98-12.79,5.48-5.48,9.78-11.86,12.79-18.98,3.12-7.38,4.7-15.2,4.7-23.25,0-.09,0-.19,0-.28h-22.42c0,.09,0,.19,0,.28Z"/>
      <g>
        <path class="cls-1" d="M218.72,286.23c-.01-.52-.02-1.04-.02-1.56,0-.09,0-.19,0-.28h.02v-28.57h-.86l-26.3,41.68v.86h27.16v-12.12Z"/>
        <path class="cls-10" d="M338.14,284.39h-22.42c0,.09,0,.19,0,.28,0,1.93-.15,3.83-.43,5.68-.61,4.01-1.87,7.82-3.65,11.3-.55,1.07-1.15,2.11-1.8,3.12-2.26,3.53-5.11,6.66-8.4,9.24-.23.18-.47.37-.71.55-.96.72-1.95,1.39-2.98,2.01-.26.16-.51.31-.78.46-.52.3-1.05.59-1.59.86-.27.14-.54.27-.81.4-.82.39-1.65.76-2.49,1.09-4.24,1.67-8.85,2.59-13.68,2.59-.64,0-1.28-.02-1.92-.05-.32-.02-.63-.04-.95-.06-4.26-.32-8.33-1.37-12.07-3.01v-20.5h-19.76c-1-2.54-1.74-5.22-2.17-8-.28-1.85-.43-3.75-.43-5.68,0-.09,0-.19,0-.28h-.19v-56.64h-30.78l-44.94,70.82v20.68h52.98v21.78h22.74v-9.87c4.32,3.49,9.09,6.35,14.24,8.53,7.38,3.12,15.2,4.7,23.25,4.7s15.88-1.58,23.25-4.7c7.11-3.01,13.5-7.31,18.98-12.79,5.48-5.48,9.78-11.86,12.79-18.98,3.12-7.38,4.7-15.2,4.7-23.25,0-.09,0-.19,0-.28ZM191.56,297.49l26.3-41.68h.86v28.57h-.02c0,.09,0,.19,0,.28,0,.52,0,1.04.02,1.56v12.12h-27.16v-.86Z"/>
      </g>
      <path class="cls-12" d="M315.4,284.53c0-1.93-.15-3.83-.43-5.68-.61-4.01-1.87-7.82-3.65-11.3-.55-1.07-1.15-2.11-1.8-3.12-2.26-3.53-5.11-6.66-8.4-9.24-.23-.18-.47-.37-.71-.55-.96-.72-1.95-1.39-2.98-2.01-.26-.16-.51-.31-.78-.46-.52-.3-1.05-.59-1.59-.86-.27-.14-.54-.27-.81-.4-.82-.39-1.65-.76-2.49-1.09-4.24-1.67-8.85-2.59-13.68-2.59-.64,0-1.28.02-1.92.05-.32.02-.63.04-.95.06-9.47.72-17.95,4.98-24.12,11.45-.02.02-.03.04-.05.05-.57.6-1.12,1.22-1.65,1.86-.52.63-1.02,1.27-1.5,1.93-.2.27-.39.54-.58.82-.73,1.06-1.41,2.16-2.03,3.3-.14.26-.28.53-.42.8-1.79,3.49-3.04,7.29-3.65,11.3-.28,1.85-.43,3.75-.43,5.68,0,.09,0,.19,0,.28h-22.42c0-.09,0-.19,0-.28,0-8.05,1.58-15.88,4.7-23.25,3.01-7.11,7.31-13.5,12.79-18.98,5.48-5.48,11.86-9.78,18.98-12.79,7.38-3.12,15.2-4.7,23.25-4.7s15.88,1.58,23.25,4.7c7.11,3.01,13.5,7.31,18.98,12.79,5.48,5.48,9.78,11.86,12.79,18.98,3.12,7.38,4.7,15.2,4.7,23.25,0,.09,0,.19,0,.28h-22.42c0-.09,0-.19,0-.28Z"/>
      <path class="cls-7" d="M225.98,262.51c2.87-6.78,6.97-12.87,12.19-18.09,5.22-5.22,11.31-9.32,18.09-12.19,7.03-2.97,14.49-4.48,22.16-4.48s15.13,1.51,22.16,4.48c6.78,2.87,12.87,6.97,18.09,12.19,5.22,5.22,9.32,11.31,12.19,18.09,2.97,7.03,4.48,14.49,4.48,22.16h2.8c0-8.05-1.58-15.88-4.7-23.25-3.01-7.11-7.31-13.5-12.79-18.98-5.48-5.48-11.86-9.78-18.98-12.79-7.38-3.12-15.2-4.7-23.25-4.7s-15.88,1.58-23.25,4.7c-7.11,3.01-13.5,7.31-18.98,12.79-5.48,5.48-9.78,11.86-12.79,18.98-3.12,7.38-4.7,15.2-4.7,23.25h2.8c0-7.68,1.51-15.13,4.48-22.16Z"/>
      <path class="cls-6" d="M318.67,244.42c-5.22-5.22-11.31-9.32-18.09-12.19-7.03-2.97-14.49-4.48-22.16-4.48s-15.13,1.51-22.16,4.48c-6.78,2.87-12.87,6.97-18.09,12.19-5.22,5.22-9.32,11.31-12.19,18.09-2.97,7.03-4.48,14.49-4.48,22.16h2.8c0-7.3,1.43-14.39,4.26-21.07,2.73-6.45,6.63-12.23,11.59-17.2,4.96-4.96,10.75-8.86,17.2-11.59,6.68-2.83,13.77-4.26,21.07-4.26s14.39,1.43,21.07,4.26c6.45,2.73,12.23,6.63,17.2,11.59,4.96,4.96,8.86,10.75,11.59,17.2,2.83,6.68,4.26,13.77,4.26,21.07h2.8c0-7.68-1.51-15.13-4.48-22.16-2.87-6.78-6.97-12.87-12.19-18.09Z"/>
      <path class="cls-8" d="M316.69,246.4c-4.96-4.96-10.75-8.86-17.2-11.59-6.68-2.83-13.77-4.26-21.07-4.26s-14.39,1.43-21.07,4.26c-6.45,2.73-12.23,6.63-17.2,11.59-4.96,4.96-8.86,10.75-11.59,17.2-2.83,6.68-4.26,13.77-4.26,21.07h2.8c0-6.92,1.36-13.64,4.04-19.98,2.59-6.11,6.28-11.6,10.99-16.31,4.71-4.71,10.19-8.41,16.31-10.99,6.34-2.68,13.06-4.04,19.98-4.04s13.64,1.36,19.98,4.04c6.11,2.59,11.6,6.28,16.31,10.99,4.71,4.71,8.41,10.19,10.99,16.31,2.68,6.34,4.04,13.06,4.04,19.98h2.8c0-7.3-1.43-14.39-4.26-21.07-2.73-6.45-6.63-12.23-11.59-17.2Z"/>
      <path class="cls-3" d="M314.87,248.38c-4.71-4.71-10.19-8.41-16.31-10.99-6.34-2.68-13.06-4.04-19.98-4.04s-13.64,1.36-19.98,4.04c-6.11,2.59-11.6,6.28-16.31,10.99-4.71,4.71-8.41,10.19-10.99,16.31-2.68,6.34-4.04,13.06-4.04,19.98h2.8c0-6.54,1.28-12.9,3.82-18.89,2.44-5.78,5.94-10.96,10.39-15.42,4.45-4.45,9.64-7.95,15.42-10.39,5.99-2.53,12.34-3.82,18.89-3.82s12.9,1.28,18.89,3.82c5.78,2.44,10.96,5.94,15.42,10.39,4.45,4.45,7.95,9.64,10.39,15.42,2.53,5.99,3.82,12.34,3.82,18.89h2.8c0-6.92-1.36-13.64-4.04-19.98-2.59-6.11-6.28-11.6-10.99-16.31Z"/>
      <path class="cls-2" d="M312.72,250.36c-4.45-4.45-9.64-7.95-15.42-10.39-5.99-2.53-12.34-3.82-18.89-3.82s-12.9,1.28-18.89,3.82c-5.78,2.44-10.96,5.94-15.42,10.39-4.45,4.45-7.95,9.64-10.39,15.42-2.53,5.99-3.82,12.34-3.82,18.89h2.8c0-6.17,1.21-12.15,3.6-17.79,2.3-5.44,5.6-10.33,9.79-14.53,4.2-4.2,9.08-7.49,14.53-9.79,5.64-2.39,11.63-3.6,17.79-3.6s12.15,1.21,17.79,3.6c5.44,2.3,10.33,5.6,14.53,9.79s7.49,9.08,9.79,14.53c2.39,5.64,3.6,11.63,3.6,17.79h2.8c0-6.54-1.28-12.9-3.82-18.89-2.44-5.78-5.94-10.96-10.39-15.42Z"/>
      <path class="cls-9" d="M310.74,252.67c-4.2-4.2-9.08-7.49-14.53-9.79-5.64-2.39-11.63-3.6-17.79-3.6s-12.15,1.21-17.79,3.6c-5.44,2.3-10.33,5.6-14.53,9.79-4.2,4.2-7.49,9.08-9.79,14.53-2.39,5.64-3.6,11.63-3.6,17.79h2.8c0-11.46,4.46-22.24,12.57-30.34,8.1-8.1,18.88-12.57,30.34-12.57s22.24,4.46,30.34,12.57c8.1,8.1,12.57,18.88,12.57,30.34h2.8c0-6.17-1.21-12.15-3.6-17.79-2.3-5.44-5.6-10.33-9.79-14.53Z"/>
      <path class="cls-5" d="M278.42,241.76c-11.46,0-22.24,4.46-30.34,12.57-8.1,8.1-12.57,18.88-12.57,30.34h2.8c0-10.71,4.17-20.78,11.75-28.36,7.57-7.57,17.65-11.75,28.36-11.75s20.78,4.17,28.36,11.75c7.57,7.57,11.75,17.65,11.75,28.36h2.8c0-11.46-4.46-22.24-12.57-30.34-8.1-8.1-18.88-12.57-30.34-12.57Z"/>
      <path class="cls-4" d="M278.1,244.62c-10.75,0-20.86,4.19-28.46,11.79-7.6,7.6-11.79,17.71-11.79,28.46h2.63c0-10.05,3.91-19.5,11.02-26.6,7.11-7.11,16.55-11.02,26.6-11.02s19.5,3.91,26.6,11.02c7.11,7.11,11.02,16.55,11.02,26.6h2.63c0-10.75-4.19-20.86-11.79-28.46-7.6-7.6-17.71-11.79-28.46-11.79Z"/>
      <g>
        <path class="cls-10" d="M372.37,228.52l7.32,31.1c.38,1.52.65,2.73.81,3.61.16.89.32,1.79.48,2.71.16.92.36,2.24.62,3.95.25,1.65.48,3.46.67,5.42.19,1.97.32,3.65.38,5.04,0,.76.03,1.55.1,2.38v2.38h1.9c0-1.39.05-3,.14-4.8s.24-3.5.43-5.09c.13-1.71.3-3.47.52-5.28.22-1.81.52-3.6.9-5.37.13-.82.29-1.65.48-2.47.19-.82.38-1.65.57-2.47l7.32-31.1h22.35l-22.45,73.33v39.85h-22.35v-39.85l-22.54-73.33h22.35Z"/>
        <path class="cls-10" d="M475.38,341.71h-47.56v-113.19h47.08v20.93h-24.73v21.59h22.83v20.93h-22.83v28.82h25.21v20.93Z"/>
        <path class="cls-10" d="M483.94,341.71l17.69-113.19h31.96l17.69,113.19h-22.35l-3.33-25.97h-15.98l-3.33,25.97h-22.35ZM512.28,294.82h10.65l-3.8-35.48c-.13-1.46-.22-2.77-.29-3.95-.06-1.17-.13-2.44-.19-3.8-.06-1.36-.1-3.03-.1-4.99h-1.9v4.09c-.06.51-.1.98-.1,1.43,0,.63-.03,1.28-.1,1.95-.06.67-.1,1.32-.1,1.95,0,1.27-.1,2.38-.29,3.33l-3.8,35.48Z"/>
        <path class="cls-10" d="M623.09,258.01c0,5.64-1.17,10.46-3.52,14.46-1.08,1.9-2.39,3.58-3.95,5.04-1.55,1.46-3.47,2.7-5.75,3.71-2.16.89-4.47,1.46-6.94,1.71v1.52c2.28,0,4.6.73,6.94,2.19,2.22,1.46,3.96,3.39,5.23,5.8.32.63.59,1.27.81,1.9.22.63.43,1.27.62,1.9l11.32,45.46h-22.35l-13.22-47.84h-7.23v47.84h-22.35v-113.19h33.29c3.04,0,5.98.46,8.8,1.38,2.82.92,5.37,2.27,7.66,4.04,2.28,1.84,4.2,3.93,5.75,6.28,1.55,2.35,2.77,5.04,3.66,8.08.82,3.11,1.24,6.34,1.24,9.7ZM585.05,272.94h5.23c1.2,0,2.36-.16,3.47-.48,1.11-.32,2.14-.82,3.09-1.52,1.65-1.33,2.82-3.23,3.52-5.71.25-1.08.38-2.41.38-3.99,0-3.61-.92-6.48-2.76-8.61-1.84-2.12-4.41-3.19-7.7-3.19h-5.23v23.49Z"/>
        <path class="cls-10" d="M669.98,262.48v-6.66c0-6.15-2.06-9.23-6.18-9.23-1.9,0-3.39.73-4.47,2.19-1.08,1.46-1.62,3.55-1.62,6.28,0,.82.08,1.71.24,2.66.16.95.55,1.97,1.19,3.04.51.95,1.27,2.08,2.28,3.38,1.01,1.3,2.28,2.68,3.8,4.14.76.82,1.62,1.68,2.57,2.57.89.95,1.9,1.93,3.04,2.95,3.42,3.11,6.58,6.15,9.46,9.13,2.88,2.98,5.25,5.61,7.09,7.89,1.84,2.41,3.3,4.72,4.38,6.94,1.08,2.22,1.87,4.5,2.38,6.85.25,1.21.43,2.44.52,3.71.1,1.27.14,2.6.14,3.99,0,3.8-.41,7.31-1.24,10.51-.82,3.2-2.09,6.07-3.8,8.61-1.59,2.41-3.66,4.47-6.23,6.18s-5.37,2.95-8.42,3.71c-3.36.89-6.98,1.33-10.84,1.33-7.8,0-14.14-1.68-19.02-5.04-4.82-3.3-8.02-8.21-9.61-14.74-.82-3.17-1.24-6.82-1.24-10.94v-9.99h20.93v10.08c0,3.68.76,6.53,2.28,8.56,1.39,2.03,3.55,3.04,6.47,3.04,1.01,0,2-.14,2.95-.43.95-.29,1.74-.74,2.38-1.38.57-.57,1.11-1.28,1.62-2.14.51-.86.89-1.92,1.14-3.19.06-.57.13-1.19.19-1.85.06-.67.1-1.35.1-2.04,0-1.33-.1-2.49-.29-3.47-.19-.98-.57-2.04-1.14-3.19-.63-1.14-1.51-2.31-2.62-3.52-1.11-1.2-2.39-2.54-3.85-3.99-.82-.76-1.73-1.58-2.71-2.47-.98-.89-2.04-1.84-3.19-2.85-3.55-3.17-6.64-6.07-9.27-8.7-2.63-2.63-4.87-5.18-6.71-7.66-1.84-2.41-3.28-4.74-4.33-6.99-1.05-2.25-1.82-4.55-2.33-6.9-.25-1.14-.43-2.35-.52-3.61-.1-1.27-.14-2.57-.14-3.9,0-3.49.36-6.74,1.09-9.75.73-3.01,1.89-5.66,3.47-7.94,3.11-4.44,7.61-7.42,13.51-8.94,2.92-.76,6.24-1.14,9.99-1.14,7.1,0,12.94,1.43,17.5,4.28,1.52.95,3.14,2.44,4.85,4.47,1.71,2.03,3.04,4.79,3.99,8.27.76,2.85,1.14,6.02,1.14,9.51v8.37h-20.93Z"/>
      </g>
    </g>
  </g>
</svg>