<?xml version="1.0" encoding="UTF-8"?>
<svg id="Layer_1" data-name="Layer 1" xmlns="http://www.w3.org/2000/svg" xmlns:xlink="http://www.w3.org/1999/xlink" viewBox="0 0 471.45 181.74">
  <defs><style>.cls-1,.cls-2,.cls-3,.cls-4,.cls-5{fill:#fff;}</style></defs>
  
  <g>
    <path class="cls-2" d="m229.94,78.03c-.93-1.6-2.18-2.87-3.76-3.8-1.58-.93-3.37-1.4-5.35-1.39-1.98,0-3.77.46-5.36,1.39-1.59.93-2.85,2.2-3.78,3.8-.93,1.6-1.39,3.42-1.39,5.42,0,2,.42,3.8,1.28,5.39.85,1.59,2.02,2.85,3.5,3.78,1.48.93,3.16,1.4,5.02,1.4,1.85,0,3.53-.47,5.02-1.4.72-.45,1.36-.98,1.93-1.59v.73c0,.6.21,1.13.61,1.54.4.41.94.62,1.54.61.6,0,1.13-.21,1.54-.61.41-.4.62-.94.61-1.54v-8.48h0c-.03-1.94-.48-3.69-1.38-5.25Zm-9.11,12.14c-1.2,0-2.28-.29-3.24-.88-.97-.59-1.73-1.38-2.3-2.4-.56-1.02-.84-2.16-.84-3.44,0-1.31.28-2.46.84-3.48.56-1.02,1.33-1.82,2.3-2.4.97-.58,2.04-.88,3.24-.88,1.23,0,2.31.29,3.26.88.96.59,1.71,1.38,2.26,2.4.55,1.02.83,2.17.83,3.48,0,1.28-.28,2.42-.83,3.44-.55,1.02-1.3,1.82-2.26,2.4-.95.58-2.03.88-3.26.88Z"/>
    <path class="cls-2" d="m259.13,74.75c0-.33-.07-.63-.2-.9-.29-.58-.89-.87-1.64-.86-1.06-.01-1.83.69-2.18,1.89l-3.82,11.99-3.15-12.27c-.11-.46-.34-.86-.7-1.15-.36-.31-.83-.45-1.37-.45-.56,0-1.04.14-1.4.45-.34.29-.57.68-.71,1.14l-3.58,12.08-3.77-11.79c-.21-.65-.48-1.13-.84-1.44-.36-.3-.82-.45-1.34-.45-.77,0-1.37.28-1.63.88-.12.29-.18.61-.18.96,0,.33.05.69.15,1.08l5.52,16.57c.14.4.41.74.78,1,.37.27.8.4,1.24.4.47,0,.9-.13,1.28-.4h0c.37-.26.63-.61.75-1.01l3.59-12.66,3.42,12.65c.12.41.39.76.77,1.02.38.26.81.4,1.26.4.47,0,.9-.13,1.27-.4.36-.26.61-.6.73-1.01l5.51-16.54c.15-.42.23-.81.23-1.17Z"/>
    <path class="cls-2" d="m416.33,76.76c.56-.12,1.16-.18,1.79-.18.75,0,1.54.09,2.39.26.2.05.41.07.6.07.13,0,.26-.01.39-.03.32-.06.6-.2.85-.41.26-.23.43-.55.51-.94.04-.14.06-.28.06-.43,0-.62-.37-1.15-1-1.57-.8-.53-1.96-.77-3.47-.77-1.53,0-2.94.36-4.22,1.08-.67.37-1.26.82-1.79,1.34v-.07c0-.66-.17-1.2-.54-1.57-.37-.37-.92-.54-1.57-.54-.64,0-1.18.18-1.56.56-.38.38-.56.92-.56,1.56v16.66c0,.66.17,1.21.56,1.58.38.37.91.54,1.55.54.66,0,1.21-.17,1.58-.56.37-.38.54-.92.54-1.55v-10.88c0-1.09.34-1.96,1.03-2.66.69-.7,1.64-1.19,2.88-1.46Z"/>
    <path class="cls-2" d="m208.9,91.91v-.23c.01-.46-.14-.9-.42-1.3l-9.57-13.03,9.35-9.39c.43-.46.7-.97.78-1.54.02-.12.03-.24.03-.35,0-.42-.12-.82-.37-1.15-.33-.45-.88-.67-1.54-.66-.31,0-.61.06-.89.19-.29.13-.58.35-.89.67l-11.91,11.91v-10.58c0-.6-.21-1.14-.63-1.56-.41-.42-.95-.64-1.56-.63-.58,0-1.11.22-1.53.63-.43.41-.66.95-.65,1.56v25.23c0,.61.22,1.15.65,1.56.42.41.95.63,1.53.63.6,0,1.14-.21,1.56-.63.42-.42.63-.95.63-1.56v-8.88l2.4-2.41,9.26,12.55c.4.6,1.04.93,1.8.92.55,0,1.04-.2,1.38-.59.33-.38.53-.84.58-1.37Z"/>
    <path class="cls-2" d="m276.17,74.16c-1.44-.88-3.15-1.32-5.13-1.32s-3.79.45-5.34,1.36c-1.55.9-2.78,2.16-3.65,3.75-.88,1.59-1.32,3.44-1.32,5.51,0,2.05.46,3.88,1.39,5.47.93,1.59,2.22,2.84,3.86,3.75,1.64.9,3.52,1.35,5.62,1.35,1.17,0,2.4-.22,3.68-.65s2.35-.99,3.23-1.68c.44-.33.7-.78.69-1.28v-.09c-.03-.52-.3-1-.76-1.4-.35-.3-.78-.46-1.25-.46h-.07c-.48.01-.94.18-1.34.48-.47.35-1.1.67-1.89.96-.78.28-1.54.41-2.28.41-1.38,0-2.59-.3-3.64-.9-1.06-.6-1.88-1.41-2.48-2.44-.35-.61-.59-1.27-.73-1.97h13.86c.55,0,1.03-.18,1.4-.54.37-.35.56-.83.56-1.35,0-1.99-.37-3.77-1.12-5.31-.75-1.54-1.85-2.76-3.28-3.64Zm-5.13,2.38c1.2,0,2.21.28,3.03.82.83.55,1.47,1.29,1.92,2.23.28.59.48,1.24.59,1.93h-11.81c.13-.58.31-1.12.56-1.64.5-1.04,1.23-1.85,2.2-2.45.96-.59,2.12-.89,3.5-.89Z"/>
    <path class="cls-2" d="m325.2,93.24c.43-.41.66-.95.65-1.56v-25.23c0-.62-.21-1.17-.63-1.58-.42-.41-.95-.61-1.55-.61-.83,0-1.51.41-1.93,1.17l-10.56,21.72-10.83-21.7c-.43-.77-1.11-1.19-1.94-1.18-.6,0-1.14.21-1.55.61-.42.41-.64.95-.64,1.58v25.23c0,.6.21,1.14.63,1.56.41.42.95.63,1.56.63.6,0,1.14-.21,1.56-.63.42-.42.63-.95.63-1.56v-17.13l8.43,16.9c.39.84,1.11,1.3,2.01,1.29.78,0,1.43-.38,1.89-1.08l.02-.03,8.54-17.41v17.45c0,.6.21,1.14.63,1.56.42.42.95.63,1.56.63.58,0,1.11-.22,1.53-.63Z"/>
    <path class="cls-2" d="m352.43,91.76v-8.48h-.01c-.03-1.94-.48-3.69-1.38-5.25-.93-1.6-2.18-2.87-3.76-3.8-1.58-.93-3.37-1.4-5.34-1.39-1.98,0-3.77.46-5.36,1.39-1.59.93-2.85,2.2-3.78,3.8-.93,1.6-1.39,3.42-1.39,5.42s.42,3.8,1.28,5.39c.85,1.59,2.02,2.85,3.5,3.78,1.48.93,3.16,1.4,5.01,1.4,1.85,0,3.53-.47,5.02-1.4.72-.45,1.36-.98,1.93-1.59v.73c0,.6.21,1.13.61,1.54.4.41.94.62,1.54.61.6,0,1.13-.21,1.54-.61.41-.4.62-.94.61-1.54Zm-16.04-4.87c-.56-1.02-.84-2.16-.84-3.44s.28-2.46.84-3.48c.56-1.02,1.33-1.82,2.3-2.4.97-.58,2.04-.88,3.24-.88,1.23,0,2.31.29,3.26.88.96.59,1.71,1.38,2.26,2.4.55,1.02.83,2.17.83,3.48s-.28,2.42-.83,3.44c-.55,1.02-1.3,1.82-2.26,2.4-.95.58-2.03.88-3.26.88-1.2,0-2.28-.29-3.24-.88l-.13.21.13-.21c-.97-.59-1.73-1.38-2.3-2.4Z"/>
    <path class="cls-2" d="m372.7,73.93c-1.39-.75-2.97-1.13-4.72-1.13s-3.2.37-4.56,1.11c-.56.31-1.07.67-1.53,1.07v-8.57c0-.62-.2-1.16-.6-1.56-.4-.4-.93-.6-1.56-.6-.6,0-1.13.2-1.53.59-.41.39-.62.94-.62,1.56v25.34c0,.6.21,1.13.61,1.54.4.41.94.62,1.54.61.62,0,1.16-.2,1.56-.62.39-.41.59-.93.59-1.53v-10.51c0-.87.23-1.63.7-2.3.47-.67,1.11-1.21,1.92-1.62.81-.4,1.71-.61,2.72-.61,1.11,0,2.08.21,2.93.63.84.41,1.5,1.04,2,1.9.49.84.75,1.95.75,3.34v9.17c0,.6.21,1.13.61,1.54.4.41.94.62,1.54.61.6,0,1.13-.21,1.54-.61.41-.4.62-.94.61-1.54v-9.17c0-2.09-.4-3.88-1.21-5.34-.8-1.45-1.91-2.57-3.3-3.32Z"/>
    <path class="cls-2" d="m386.78,92.62c1.48.93,3.16,1.4,5.01,1.4,1.85,0,3.53-.47,5.02-1.4.72-.45,1.36-.98,1.93-1.59v.73c0,.6.21,1.13.61,1.54.4.41.94.62,1.54.61.6,0,1.13-.21,1.54-.61.41-.4.62-.94.61-1.54v-8.48h-.01c-.03-1.94-.48-3.69-1.38-5.25-.93-1.6-2.18-2.87-3.76-3.8-1.58-.93-3.37-1.4-5.34-1.39-1.98,0-3.77.46-5.36,1.39-1.59.93-2.85,2.2-3.78,3.8-.93,1.6-1.39,3.42-1.39,5.42s.42,3.8,1.28,5.39c.85,1.59,2.02,2.85,3.5,3.78Zm.22-5.74c-.56-1.02-.84-2.16-.84-3.44s.28-2.46.84-3.48c.56-1.02,1.33-1.82,2.3-2.4.97-.58,2.04-.88,3.24-.88,1.23,0,2.31.29,3.26.88.96.59,1.71,1.38,2.26,2.4.55,1.02.83,2.17.83,3.48s-.28,2.42-.83,3.44c-.55,1.02-1.3,1.82-2.26,2.4-.95.58-2.03.88-3.26.88-1.2,0-2.28-.29-3.24-.88l-.13.21.13-.21c-.97-.59-1.73-1.38-2.3-2.4Z"/>
    <path class="cls-2" d="m444.81,83.28c-.03-1.93-.48-3.69-1.38-5.25-.93-1.6-2.18-2.87-3.76-3.8-1.58-.93-3.37-1.4-5.34-1.39-1.98,0-3.77.46-5.36,1.39-1.59.93-2.85,2.2-3.78,3.8-.93,1.6-1.39,3.42-1.39,5.42s.42,3.8,1.28,5.39c.85,1.59,2.02,2.85,3.5,3.78,1.48.93,3.16,1.4,5.01,1.4,1.85,0,3.53-.47,5.02-1.4.72-.45,1.36-.98,1.93-1.59v.73c0,.6.21,1.13.61,1.54.4.41.94.62,1.54.61.6,0,1.13-.21,1.54-.61.41-.4.62-.94.61-1.54v-8.48h-.01Zm-16.03,3.61c-.56-1.02-.84-2.16-.84-3.44s.28-2.46.84-3.48c.56-1.02,1.33-1.82,2.3-2.4.97-.58,2.04-.88,3.24-.88,1.23,0,2.31.29,3.26.88.96.59,1.71,1.38,2.26,2.4.55,1.02.83,2.17.83,3.48s-.28,2.42-.83,3.44c-.55,1.02-1.3,1.82-2.26,2.4-.95.58-2.03.88-3.26.88-1.2,0-2.28-.29-3.24-.88l-.13.21.13-.21c-.97-.59-1.73-1.38-2.3-2.4Z"/>
    <path class="cls-2" d="m265.72,104.11c-.12-.28-.31-.42-.58-.42-.28,0-.47.14-.58.42l-6.05,14.31c-.09.17-.09.36.01.56.1.2.28.3.53.3.13,0,.25-.03.34-.09.09-.06.17-.16.22-.29l1.48-3.53h8.12l1.48,3.53c.07.13.14.23.23.29s.2.09.33.09c.23,0,.4-.1.52-.29.12-.19.13-.38.02-.57l-6.07-14.31Zm-4.18,10.18l3.6-8.62,3.61,8.62h-7.22Z"/>
    <path class="cls-2" d="m240.27,108.95c-.76-.46-1.63-.69-2.62-.69s-1.88.24-2.65.72c-.77.48-1.38,1.13-1.82,1.97-.44.83-.66,1.79-.66,2.88s.23,2.04.7,2.87c.47.84,1.11,1.49,1.93,1.97.82.47,1.75.71,2.8.71.62,0,1.28-.13,1.97-.38.69-.25,1.24-.57,1.67-.96.13-.12.2-.25.19-.4,0-.15-.08-.28-.23-.4-.11-.09-.24-.14-.39-.13-.15,0-.28.06-.39.17-.31.29-.72.53-1.25.71-.53.18-1.05.27-1.57.27-.83,0-1.56-.19-2.2-.57s-1.14-.9-1.5-1.57c-.31-.57-.48-1.22-.52-1.94h8.36c.17,0,.31-.05.42-.15.11-.1.16-.24.16-.41,0-1.05-.21-1.98-.64-2.79-.43-.8-1.02-1.44-1.78-1.9Zm-6.04,2.56c.34-.67.8-1.19,1.4-1.57.59-.38,1.27-.57,2.03-.57.8,0,1.49.19,2.09.57.59.38,1.05.9,1.37,1.57.24.49.38,1.04.42,1.64h-7.77c.07-.6.22-1.15.47-1.64Z"/>
    <path class="cls-2" d="m217.18,108.36c-.17,0-.32.05-.43.16-.11.11-.17.25-.17.44v6.11c0,.6-.17,1.13-.5,1.61s-.79.85-1.36,1.13c-.57.28-1.22.42-1.94.42s-1.39-.14-1.97-.43-1.04-.72-1.38-1.3c-.34-.58-.51-1.3-.51-2.17v-5.37c0-.17-.06-.32-.17-.43-.11-.11-.26-.17-.43-.17s-.32.06-.43.17c-.11.11-.17.26-.17.43v5.37c0,1.09.22,2.02.67,2.77.45.76,1.05,1.33,1.81,1.73.76.39,1.62.59,2.58.59.86,0,1.65-.19,2.35-.57.58-.31,1.05-.75,1.45-1.25v1.08c0,.17.06.32.17.43.11.11.26.17.43.17.19,0,.33-.06.44-.17.11-.11.16-.26.16-.43v-9.72c0-.19-.05-.33-.16-.44s-.25-.16-.44-.16Z"/>
    <path class="cls-2" d="m228.51,108.95c-.76-.46-1.63-.69-2.62-.69s-1.88.24-2.65.72c-.77.48-1.38,1.13-1.82,1.97-.44.83-.66,1.79-.66,2.88s.23,2.04.7,2.87c.47.84,1.11,1.49,1.93,1.97.82.47,1.75.71,2.8.71.62,0,1.28-.13,1.97-.38.69-.25,1.24-.57,1.67-.96.13-.12.2-.25.19-.4,0-.15-.08-.28-.23-.4-.11-.09-.24-.14-.39-.13-.15,0-.28.06-.39.17-.31.29-.72.53-1.25.71-.53.18-1.05.27-1.57.27-.83,0-1.56-.19-2.2-.57s-1.14-.9-1.5-1.57c-.31-.57-.48-1.22-.52-1.94h8.36c.17,0,.31-.05.42-.15.11-.1.16-.24.16-.41,0-1.05-.21-1.98-.64-2.79-.43-.8-1.02-1.44-1.78-1.9Zm-6.04,2.56c.34-.67.8-1.19,1.4-1.57.59-.38,1.27-.57,2.03-.57.8,0,1.49.19,2.09.57.59.38,1.05.9,1.37,1.57.24.49.38,1.04.42,1.64h-7.77c.07-.6.22-1.15.47-1.64Z"/>
    <path class="cls-2" d="m202.65,105.77c-.73-.73-1.57-1.29-2.54-1.69s-2.02-.6-3.16-.6-2.2.2-3.17.6-1.82.96-2.54,1.69-1.29,1.57-1.69,2.54-.6,2.02-.6,3.16.2,2.2.6,3.17c.4.97.96,1.82,1.69,2.54.73.73,1.57,1.29,2.54,1.69s2.03.6,3.17.6,2.2-.2,3.16-.6c.64-.26,1.22-.61,1.76-1.02l1.25,1.24c.12.12.26.18.41.18s.29-.06.41-.18c.12-.12.18-.26.18-.41s-.06-.29-.18-.41l-1.2-1.19c.68-.7,1.21-1.52,1.6-2.45.4-.97.6-2.03.6-3.17s-.2-2.2-.6-3.16-.96-1.81-1.69-2.54Zm.58,8.39c-.32.78-.78,1.47-1.36,2.07l-2.37-2.35c-.12-.12-.26-.18-.41-.18s-.29.06-.41.18c-.12.12-.18.26-.18.41s.06.29.18.41l2.3,2.28c-.42.31-.87.58-1.36.78-.83.34-1.72.51-2.67.51s-1.87-.17-2.69-.51c-.83-.34-1.55-.82-2.17-1.44-.62-.62-1.1-1.34-1.44-2.17s-.51-1.72-.51-2.7.17-1.85.51-2.67c.34-.82.82-1.55,1.44-2.17.62-.62,1.34-1.1,2.17-1.44.83-.34,1.72-.51,2.69-.51s1.85.17,2.67.51c.82.34,1.55.82,2.17,1.44.62.62,1.1,1.34,1.44,2.17.34.83.51,1.72.51,2.67s-.17,1.87-.51,2.7Z"/>
    <path class="cls-2" d="m251.09,108.42c-.28-.12-.67-.18-1.18-.18-.75,0-1.42.19-2.04.56-.57.34-1.02.83-1.4,1.41v-1.25c0-.19-.05-.33-.16-.44-.11-.11-.25-.16-.44-.16-.17,0-.32.05-.43.16-.11.11-.17.25-.17.44v9.72c0,.17.06.32.17.43.11.11.26.17.43.17.19,0,.33-.06.44-.17.11-.11.16-.26.16-.43v-6.07c0-.62.15-1.18.44-1.67.29-.49.7-.87,1.22-1.15.52-.28,1.11-.42,1.78-.42.25,0,.48.02.69.05.21.03.38.03.53,0s.24-.16.28-.36c.07-.31-.04-.52-.32-.64Z"/>
    <path class="cls-2" d="m442,108.97c-.84-.49-1.79-.73-2.85-.73s-2.02.24-2.86.73c-.85.49-1.51,1.15-2,2-.49.85-.73,1.8-.73,2.86s.24,2,.73,2.84c.49.84,1.15,1.51,2,2,.84.49,1.8.73,2.86.73.97,0,1.84-.21,2.59-.63.74-.41,1.33-.97,1.78-1.67v1.58c0,.17.06.32.17.43.11.11.26.17.45.17.17,0,.31-.06.42-.17.11-.11.16-.26.16-.43v-4.85c0-1.06-.24-2.02-.73-2.86-.49-.84-1.15-1.51-1.99-2Zm-.61,8.72c-.66.39-1.41.59-2.25.59s-1.57-.2-2.24-.59-1.19-.92-1.58-1.6c-.39-.67-.58-1.43-.58-2.27s.19-1.61.58-2.29c.39-.67.91-1.2,1.58-1.6s1.41-.59,2.24-.59,1.59.2,2.25.59c.66.39,1.18.92,1.56,1.6s.57,1.43.57,2.29-.19,1.59-.57,2.27-.9,1.2-1.56,1.6Z"/>
    <path class="cls-2" d="m384.24,118.06h-.44c-.76,0-1.38-.24-1.86-.73-.48-.49-.72-1.11-.72-1.89v-5.61h2.63c.16,0,.29-.05.39-.15.1-.1.15-.23.15-.39s-.05-.29-.15-.39c-.1-.1-.23-.15-.39-.15h-2.63v-3.25c0-.19-.06-.34-.17-.45-.11-.11-.26-.17-.45-.17-.17,0-.32.06-.43.17-.11.11-.17.26-.17.45v3.25h-1.56c-.16,0-.29.05-.39.15-.1.1-.15.23-.15.39s.05.29.15.39c.1.1.23.15.39.15h1.56v5.61c0,.73.16,1.39.48,1.97s.77,1.03,1.34,1.36c.57.33,1.22.5,1.96.51h.46c.19,0,.34-.06.45-.17.11-.11.17-.26.17-.43,0-.19-.06-.34-.17-.45-.11-.11-.26-.17-.45-.17Z"/>
    <path class="cls-2" d="m279.71,108.42c-.28-.12-.67-.18-1.18-.18-.75,0-1.42.19-2.04.56-.57.34-1.02.83-1.4,1.41v-1.25c0-.19-.05-.33-.16-.44-.11-.11-.25-.16-.44-.16-.17,0-.32.05-.43.16-.11.11-.17.25-.17.44v9.72c0,.17.06.32.17.43.11.11.26.17.43.17.19,0,.33-.06.44-.17.11-.11.16-.26.16-.43v-6.07c0-.62.15-1.18.44-1.67.29-.49.7-.87,1.22-1.15.52-.28,1.11-.42,1.78-.42.25,0,.48.02.69.05.21.03.38.03.53,0s.24-.16.28-.36c.07-.31-.04-.52-.32-.64Z"/>
    <path class="cls-2" d="m394.5,108.95c-.76-.46-1.63-.69-2.62-.69s-1.88.24-2.65.72c-.77.48-1.38,1.13-1.82,1.97-.44.83-.66,1.79-.66,2.88s.23,2.04.7,2.87c.47.84,1.11,1.49,1.93,1.97.82.47,1.75.71,2.8.71.62,0,1.28-.13,1.97-.38.69-.25,1.24-.57,1.67-.96.13-.12.2-.25.19-.4,0-.15-.08-.28-.23-.4-.11-.09-.24-.14-.39-.13-.15,0-.28.06-.39.17-.31.29-.72.53-1.25.71-.53.18-1.05.27-1.57.27-.83,0-1.56-.19-2.2-.57s-1.14-.9-1.5-1.57c-.31-.57-.48-1.22-.52-1.94h8.36c.17,0,.31-.05.42-.15.11-.1.16-.24.16-.41,0-1.05-.21-1.98-.64-2.79-.43-.8-1.02-1.44-1.78-1.9Zm-6.04,2.56c.34-.67.8-1.19,1.4-1.57.59-.38,1.27-.57,2.03-.57.8,0,1.49.19,2.09.57.59.38,1.05.9,1.37,1.57.24.49.38,1.04.42,1.64h-7.77c.07-.6.22-1.15.47-1.64Z"/>
    <path class="cls-2" d="m428.45,108.97c-.84-.49-1.79-.73-2.85-.73s-2.02.24-2.86.73c-.85.49-1.51,1.15-2,2-.49.85-.73,1.8-.73,2.86s.24,2,.73,2.84c.49.84,1.15,1.51,2,2,.84.49,1.8.73,2.86.73s2.02-.24,2.85-.73c.84-.49,1.5-1.15,1.99-2,.49-.84.73-1.79.73-2.84s-.24-2.02-.73-2.86c-.49-.84-1.15-1.51-1.99-2Zm.95,7.13c-.38.67-.9,1.2-1.56,1.6s-1.41.59-2.25.59-1.57-.2-2.24-.59-1.19-.92-1.58-1.6c-.39-.67-.58-1.43-.58-2.27s.19-1.61.58-2.29c.39-.67.91-1.2,1.58-1.6s1.41-.59,2.24-.59,1.59.2,2.25.59,1.18.92,1.56,1.6.57,1.43.57,2.27-.19,1.61-.57,2.29Z"/>
    <path class="cls-2" d="m357.97,104.11c-.12-.28-.31-.42-.58-.42-.28,0-.47.14-.58.42l-6.05,14.31c-.09.17-.09.36.01.56.1.2.28.3.53.3.13,0,.25-.03.34-.09.09-.06.17-.16.22-.29l1.48-3.53h8.12l1.48,3.53c.07.13.14.23.23.29s.2.09.33.09c.23,0,.4-.1.52-.29.12-.19.13-.38.02-.57l-6.07-14.31Zm-4.18,10.18l3.6-8.62,3.61,8.62h-7.22Z"/>
    <path class="cls-2" d="m406.95,108.97c-.84-.49-1.79-.73-2.85-.73s-2.02.24-2.86.73c-.85.49-1.51,1.15-2,2-.49.85-.73,1.8-.73,2.86s.24,2,.73,2.84c.49.84,1.15,1.51,2,2,.84.49,1.8.73,2.86.73.97,0,1.84-.21,2.59-.63.74-.41,1.33-.97,1.78-1.67v1.58c0,.17.06.32.17.43.11.11.26.17.45.17.17,0,.31-.06.42-.17.11-.11.16-.26.16-.43v-4.85c0-1.06-.24-2.02-.73-2.86-.49-.84-1.15-1.51-1.99-2Zm-.61,8.72c-.66.39-1.41.59-2.25.59s-1.57-.2-2.24-.59-1.19-.92-1.58-1.6c-.39-.67-.58-1.43-.58-2.27s.19-1.61.58-2.29c.39-.67.91-1.2,1.58-1.6s1.41-.59,2.24-.59,1.59.2,2.25.59,1.18.92,1.56,1.6.57,1.43.57,2.29-.19,1.59-.57,2.27-.9,1.2-1.56,1.6Z"/>
    <path class="cls-2" d="m418.47,108.42c-.28-.12-.67-.18-1.18-.18-.75,0-1.42.19-2.04.56-.57.34-1.02.83-1.4,1.41v-1.25c0-.19-.05-.33-.16-.44-.11-.11-.25-.16-.44-.16-.17,0-.32.05-.43.16-.11.11-.17.25-.17.44v9.72c0,.17.06.32.17.43.11.11.26.17.43.17.19,0,.33-.06.44-.17.11-.11.16-.26.16-.43v-6.07c0-.62.15-1.18.44-1.67.29-.49.7-.87,1.22-1.15.52-.28,1.11-.42,1.78-.42.25,0,.48.02.69.05.21.03.38.03.53,0s.24-.16.28-.36c.07-.31-.04-.52-.32-.64Z"/>
    <path class="cls-2" d="m373.6,108.97c-.84-.49-1.79-.73-2.85-.73s-2.02.24-2.86.73c-.85.49-1.51,1.15-2,2-.49.85-.73,1.8-.73,2.86s.24,2,.73,2.84c.49.84,1.15,1.51,2,2,.84.49,1.8.73,2.86.73s2.02-.24,2.85-.73c.84-.49,1.5-1.15,1.99-2,.49-.84.73-1.79.73-2.84s-.24-2.02-.73-2.86c-.49-.84-1.15-1.51-1.99-2Zm.95,7.13c-.38.67-.9,1.2-1.56,1.6s-1.41.59-2.25.59-1.57-.2-2.24-.59-1.19-.92-1.58-1.6c-.39-.67-.58-1.43-.58-2.27s.19-1.61.58-2.29c.39-.67.91-1.2,1.58-1.6s1.41-.59,2.24-.59,1.59.2,2.25.59,1.18.92,1.56,1.6.57,1.43.57,2.27-.19,1.61-.57,2.29Z"/>
    <path class="cls-2" d="m301.26,108.81c-.77-.39-1.63-.59-2.58-.59-.85,0-1.63.19-2.34.57-.58.31-1.06.75-1.46,1.25v-5.76c0-.19-.05-.33-.16-.44-.11-.11-.25-.16-.44-.16-.17,0-.32.05-.43.16-.11.11-.17.25-.17.44v14.39c0,.17.06.32.17.43.11.11.26.17.43.17.19,0,.33-.06.44-.17.11-.11.16-.26.16-.43v-6.11c0-.6.17-1.14.5-1.62.33-.48.78-.86,1.36-1.13s1.22-.41,1.94-.41,1.39.14,1.97.43c.58.29,1.04.72,1.38,1.29s.51,1.3.51,2.18v5.37c0,.17.06.32.17.43.11.11.26.17.43.17s.32-.06.43-.17c.11-.11.17-.26.17-.43v-5.37c0-1.1-.22-2.03-.66-2.79-.44-.75-1.04-1.32-1.81-1.72Z"/>
    <path class="cls-2" d="m308.11,108.36c-.17,0-.32.05-.43.16-.11.11-.17.25-.17.44v9.72c0,.17.06.32.17.43.11.11.26.17.43.17.19,0,.33-.06.44-.17.11-.11.16-.26.16-.43v-9.72c0-.19-.05-.33-.16-.44s-.25-.16-.44-.16Z"/>
    <path class="cls-2" d="m341.97,113.87c-.58-.32-1.37-.55-2.37-.68-.73-.11-1.32-.25-1.76-.43-.44-.18-.76-.4-.95-.66s-.29-.56-.29-.91c0-.51.23-.94.7-1.3.47-.36,1.12-.54,1.96-.54.62,0,1.17.11,1.65.33.47.22.88.54,1.21.97.11.13.23.21.38.24.15.03.29,0,.42-.06.17-.09.28-.22.31-.37.03-.15,0-.3-.11-.43-.39-.55-.89-.98-1.52-1.31s-1.39-.49-2.3-.49c-.75,0-1.41.12-1.99.35-.58.23-1.03.58-1.37,1.04-.33.46-.5,1.02-.5,1.69,0,.71.32,1.32.96,1.86s1.62.89,2.95,1.08c1.04.15,1.81.39,2.31.73.5.34.75.77.75,1.29s-.23,1-.7,1.4c-.47.4-1.26.6-2.38.6-.65,0-1.25-.09-1.81-.27-.55-.18-1.02-.5-1.41-.95-.09-.12-.22-.19-.37-.22s-.3,0-.43.1c-.15.11-.23.24-.25.39-.02.15.02.3.13.43.51.6,1.14,1.03,1.9,1.28.76.25,1.48.38,2.18.38.76,0,1.46-.12,2.12-.37.65-.25,1.18-.6,1.58-1.07s.6-1.01.6-1.64c0-.48-.12-.93-.37-1.35-.25-.42-.66-.79-1.24-1.11Z"/>
    <path class="cls-2" d="m288.71,108.75c-.71-.33-1.48-.49-2.34-.49-1,0-1.88.24-2.65.73-.77.49-1.38,1.15-1.82,1.99-.44.84-.66,1.79-.66,2.85s.24,2,.71,2.83c.47.84,1.12,1.5,1.94,2,.82.49,1.75.74,2.78.74,1.45,0,2.66-.45,3.63-1.34.12-.11.18-.24.17-.39,0-.15-.08-.29-.21-.41-.11-.11-.23-.15-.38-.14-.15.01-.28.07-.4.18-.36.33-.78.58-1.27.74-.49.16-1,.24-1.55.24-.84,0-1.57-.2-2.21-.59-.63-.39-1.13-.92-1.49-1.6s-.54-1.43-.54-2.27.16-1.63.49-2.29c.33-.67.79-1.19,1.38-1.58.59-.39,1.28-.58,2.07-.58,1.32,0,2.4.51,3.25,1.52.11.13.23.21.38.23.15.02.28-.02.4-.11.15-.09.23-.21.26-.36s-.01-.29-.12-.42c-.52-.67-1.13-1.16-1.84-1.49Z"/>
    <path class="cls-2" d="m330.57,108.95c-.76-.46-1.63-.69-2.62-.69s-1.88.24-2.65.72c-.77.48-1.38,1.13-1.82,1.97-.44.83-.66,1.79-.66,2.88s.23,2.04.7,2.87c.47.84,1.11,1.49,1.93,1.97.82.47,1.75.71,2.8.71.62,0,1.28-.13,1.97-.38.69-.25,1.24-.57,1.67-.96.13-.12.2-.25.19-.4,0-.15-.08-.28-.23-.4-.11-.09-.24-.14-.39-.13-.15,0-.28.06-.39.17-.31.29-.72.53-1.25.71-.53.18-1.05.27-1.57.27-.83,0-1.56-.19-2.2-.57s-1.14-.9-1.5-1.57c-.31-.57-.48-1.22-.52-1.94h8.36c.17,0,.31-.05.42-.15.11-.1.16-.24.16-.41,0-1.05-.21-1.98-.64-2.79-.43-.8-1.02-1.44-1.78-1.9Zm-6.04,2.56c.34-.67.8-1.19,1.4-1.57.59-.38,1.27-.57,2.03-.57.8,0,1.49.19,2.09.57.59.38,1.05.9,1.37,1.57.24.49.38,1.04.42,1.64h-7.77c.07-.6.22-1.15.47-1.64Z"/>
    <path class="cls-2" d="m321.29,108.38c-.15-.07-.3-.07-.45-.02-.15.05-.26.15-.33.3l-4.03,8.87-4.1-8.85c-.07-.15-.17-.25-.31-.3-.14-.05-.28-.05-.43.02-.15.07-.25.17-.3.31-.05.14-.05.28,0,.43l4.55,9.74c.12.28.31.42.56.42.29,0,.51-.14.64-.42l4.49-9.76c.07-.15.07-.29,0-.43-.06-.14-.16-.24-.31-.31Z"/>
    <path class="cls-2" d="m308.11,104.21c-.24,0-.46.08-.65.23-.19.15-.29.38-.29.69,0,.27.09.49.27.67.18.18.4.27.65.27.27,0,.49-.09.67-.27.18-.18.27-.4.27-.67,0-.31-.1-.54-.29-.69-.19-.15-.4-.23-.63-.23Z"/>
  </g>
  <g>
    <path class="cls-1" d="m97.44,161.03c3.25-.44,6.37-1.83,9.24-3.45,9.74-5.5,17.75-14.01,22.65-24.07,4.9-10.05,6.67-21.61,5-32.67-.99-6.55-3.4-13.28-8.58-17.41-3.52-2.81-8.18-4.18-12.66-3.66-4.51.53-8.85,3.06-11.13,6.99s-2.21,9.23.53,12.85,8.16,5.08,12.17,2.94c.25,4.09-.12,6.2-.21,6.91-.99,7.55-4.06,14.74-9.68,20.01-7.55,7.09-17.97,9.02-28.02,8.62-2.6-.1-5.2-.37-7.77-.77-1.08-.17-6.18-1.15-6.86-1.4,2.15,3.56,5.15,6.81,8.05,9.77,1.82,1.85,3.97,3.49,6.47,4.31s5.27.54,7.88.23c5.57-.65,10.99-2.46,15.86-5.23,4.04-2.3,7.71-5.26,10.76-8.78,5.35-6.18,8.87-13.9,10.22-21.94.69-4.07.82-8.23.34-12.33-.43-3.67-.92-8.51-4.09-10.89-.33-.25-.69-.47-1.07-.66-1.96-.97-4.71-.25-5.8,1.75-.74,1.36-.77,3.15.25,4.32s2.85,1.53,4.24.84c-1.99,2.13-5.96,1.5-7.51-.97-1.55-2.47-.7-6.01,1.56-7.84s5.59-2.04,8.28-.92c7.47,3.13,8.89,13.05,8.83,20.13-.14,17.49-8.83,33.68-24.34,42.17-6.14,3.36-13.02,5.35-20.02,5.67,3.69,2.99,8.08,5.46,12.82,5.6.86.03,1.72-.02,2.56-.14Z"/>
    <path class="cls-5" d="m23.87,95.83c.44,3.25,1.83,6.37,3.45,9.24,5.5,9.74,14.01,17.75,24.07,22.65,10.05,4.9,21.61,6.67,32.67,5,6.55-.99,13.28-3.4,17.41-8.58,2.81-3.52,4.18-8.18,3.66-12.66-.53-4.51-3.06-8.85-6.99-11.13-3.93-2.27-9.23-2.21-12.85.53s-5.08,8.16-2.94,12.17c-4.09.25-6.2-.12-6.91-.21-7.55-.99-14.74-4.06-20.01-9.68-7.09-7.55-9.02-17.97-8.62-28.02.1-2.6.37-5.2.77-7.77.17-1.08,1.15-6.18,1.4-6.86-3.56,2.15-6.81,5.15-9.77,8.05-1.85,1.82-3.49,3.97-4.31,6.47s-.54,5.27-.23,7.88c.65,5.57,2.46,10.99,5.23,15.86,2.3,4.04,5.26,7.71,8.78,10.76,6.18,5.35,13.9,8.87,21.94,10.22,4.07.69,8.23.82,12.33.34,3.67-.43,8.51-.92,10.89-4.09.25-.33.47-.69.66-1.07.97-1.96.25-4.71-1.75-5.8-1.36-.74-3.15-.77-4.32.25s-1.53,2.85-.84,4.24c-2.13-1.99-1.5-5.96.97-7.51s6.01-.7,7.84,1.56c1.83,2.27,2.04,5.59.92,8.28-3.13,7.47-13.05,8.89-20.13,8.83-17.49-.14-33.68-8.83-42.17-24.34-3.36-6.14-5.35-13.02-5.67-20.02-2.99,3.69-5.46,8.08-5.6,12.82-.03.86.02,1.72.14,2.56Z"/>
    <path class="cls-3" d="m90.27,22.71c-3.25.44-6.37,1.83-9.24,3.45-9.74,5.5-17.75,14.01-22.65,24.07-4.9,10.05-6.67,21.61-5,32.67.99,6.55,3.4,13.28,8.58,17.41,3.52,2.81,8.18,4.18,12.66,3.66,4.51-.53,8.85-3.06,11.13-6.99,2.27-3.93,2.21-9.23-.53-12.85-2.74-3.62-8.16-5.08-12.17-2.94-.25-4.09.12-6.2.21-6.91.99-7.55,4.06-14.74,9.68-20.01,7.55-7.09,17.97-9.02,28.02-8.62,2.6.1,5.2.37,7.77.77,1.08.17,6.18,1.15,6.86,1.4-2.15-3.56-5.15-6.81-8.05-9.77-1.82-1.85-3.97-3.49-6.47-4.31s-5.27-.54-7.88-.23c-5.57.65-10.99,2.46-15.86,5.23-4.04,2.3-7.71,5.26-10.76,8.78-5.35,6.18-8.87,13.9-10.22,21.94-.69,4.07-.82,8.23-.34,12.33.43,3.67.92,8.51,4.09,10.89.33.25.69.47,1.07.66,1.96.97,4.71.25,5.8-1.75.74-1.36.77-3.15-.25-4.32s-2.85-1.53-4.24-.84c1.99-2.13,5.96-1.5,7.51.97s.7,6.01-1.56,7.84c-2.27,1.83-5.59,2.04-8.28.92-7.47-3.13-8.89-13.05-8.83-20.13.14-17.49,8.83-33.68,24.34-42.17,6.14-3.36,13.02-5.35,20.02-5.67-3.69-2.99-8.08-5.46-12.82-5.6-.86-.03-1.72.02-2.56.14Z"/>
    <path class="cls-4" d="m163.06,88.26c-.44-3.25-1.83-6.37-3.45-9.24-5.5-9.74-14.01-17.75-24.07-22.65-10.05-4.9-21.61-6.67-32.67-5-6.55.99-13.28,3.4-17.41,8.58-2.81,3.52-4.18,8.18-3.66,12.66.53,4.51,3.06,8.85,6.99,11.13,3.93,2.27,9.23,2.21,12.85-.53,3.62-2.74,5.08-8.16,2.94-12.17,4.09-.25,6.2.12,6.91.21,7.55.99,14.74,4.06,20.01,9.68,7.09,7.55,9.02,17.97,8.62,28.02-.1,2.6-.37,5.2-.77,7.77-.17,1.08-1.15,6.18-1.4,6.86,3.56-2.15,6.81-5.15,9.77-8.05,1.85-1.82,3.49-3.97,4.31-6.47s.54-5.27.23-7.88c-.65-5.57-2.46-10.99-5.23-15.86-2.3-4.04-5.26-7.71-8.78-10.76-6.18-5.35-13.9-8.87-21.94-10.22-4.07-.69-8.23-.82-12.33-.34-3.67.43-8.51.92-10.89,4.09-.25.33-.47.69-.66,1.07-.97,1.96-.25,4.71,1.75,5.8,1.36.74,3.15.77,4.32-.25s1.53-2.85.84-4.24c2.13,1.99,1.5,5.96-.97,7.51-2.47,1.55-6.01.7-7.84-1.56-1.83-2.27-2.04-5.59-.92-8.28,3.13-7.47,13.05-8.89,20.13-8.83,17.49.14,33.68,8.83,42.17,24.34,3.36,6.14,5.35,13.02,5.67,20.02,2.99-3.69,5.46-8.08,5.6-12.82.03-.86-.02-1.72-.14-2.56Z"/>
  </g>
</svg>